<?xml version="1.0"?>
<svg xmlns="http://www.w3.org/2000/svg" height="512px" viewBox="0 0 512.00031 512" width="512px" class=""><g><path d="m230.414062 82.652344c2.261719 0 4.527344-.757813 6.398438-2.316406l.003906-.003907c4.246094-3.539062 4.816406-9.839843 1.28125-14.082031-3.539062-4.246094-9.847656-4.8125-14.089844-1.28125-4.242187 3.539062-4.816406 9.84375-1.28125 14.085938 1.980469 2.375 4.824219 3.597656 7.6875 3.597656zm0 0" data-original="#000000" class="active-path" data-old_color="#000000" fill="#FFFFFF"/><path d="m199.855469 431.96875h-.007813c-5.519531 0-9.996094 4.480469-9.996094 10 0 5.523438 4.480469 10 10.003907 10 5.523437 0 10-4.476562 10-10 0-5.519531-4.476563-10-10-10zm0 0" data-original="#000000" class="active-path" data-old_color="#000000" fill="#FFFFFF"/><path d="m189.855469 293.71875c-16.542969 0-30 13.457031-30 30s13.457031 30 30 30 30-13.457031 30-30-13.457031-30-30-30zm0 40c-5.511719 0-10-4.488281-10-10 0-5.515625 4.488281-10 10-10 5.515625 0 10 4.484375 10 10 0 5.511719-4.484375 10-10 10zm0 0" data-original="#000000" class="active-path" data-old_color="#000000" fill="#FFFFFF"/><path d="m322.160156 161.714844c16.542969 0 30-13.460938 30-30 0-16.542969-13.457031-30-30-30-16.542968 0-30 13.457031-30 30 0 16.539062 13.457032 30 30 30zm0-40c5.515625 0 10 4.484375 10 10 0 5.511718-4.484375 10-10 10-5.511718 0-10-4.488282-10-10 0-5.515625 4.488282-10 10-10zm0 0" data-original="#000000" class="active-path" data-old_color="#000000" fill="#FFFFFF"/><path d="m499.78125 123.414062-159.46875-117.328124c-10.488281-7.988282-25.214844-8.128907-35.875-.316407l-47.730469 35.121094c-4.449219 3.273437-5.402343 9.53125-2.128906 13.980469 3.273437 4.449218 9.535156 5.398437 13.980469 2.128906l47.71875-35.109375c3.546875-2.601563 8.457031-2.550781 11.941406.125.054688.042969.109375.082031.164062.121094l159.558594 117.398437c4.425782 3.246094 5.390625 9.484375 2.144532 13.914063-1.574219 2.144531-3.886719 3.546875-6.511719 3.953125-2.636719.402344-5.257813-.238282-7.390625-1.800782l-148.097656-108.964843c-3.523438-2.59375-8.328126-2.59375-11.851563 0l-148.082031 108.953125c-2.144532 1.574218-4.777344 2.21875-7.402344 1.8125s-4.9375-1.808594-6.511719-3.953125c-3.246093-4.429688-2.285156-10.667969 2.15625-13.925781l47.726563-35.113282c4.449218-3.269531 5.402344-9.53125 2.128906-13.980468-3.273438-4.449219-9.535156-5.398438-13.980469-2.128907l-47.710937 35.105469c-6.453125 4.730469-10.679688 11.691406-11.898438 19.597656-1.21875 7.910156.71875 15.816406 5.445313 22.269532 4.730469 6.453124 11.691406 10.679687 19.601562 11.898437 5.722657.882813 11.445313.105469 16.621094-2.1875v21.335937c-.746094.449219-1.480469.933594-2.195313 1.457032l-47.730468 35.117187c-4.449219 3.273438-5.402344 9.53125-2.128906 13.980469 3.273437 4.449219 9.53125 5.398438 13.980468 2.128906l47.714844-35.109375c3.546875-2.601562 8.460938-2.550781 11.945312.125.054688.042969.105469.082031.164063.121094l159.558594 117.398437c4.425781 3.246094 5.386719 9.484376 2.144531 13.914063-1.574219 2.144531-3.886719 3.546875-6.515625 3.953125-2.628906.402344-5.257813-.238281-7.386719-1.800781l-148.097656-108.964844c-3.523438-2.59375-8.328125-2.59375-11.851562 0l-148.082032 108.953125c-2.144531 1.574219-4.773437 2.21875-7.402344 1.8125-2.628906-.40625-4.941406-1.808594-6.511718-3.953125-1.570313-2.144531-2.214844-4.773437-1.8125-7.402344.40625-2.625 1.8125-4.9375 3.96875-6.519531l47.726562-35.117188c4.449219-3.269531 5.402344-9.53125 2.128906-13.976562-3.273437-4.453125-9.53125-5.402344-13.980468-2.128906l-47.714844 35.101562c-6.453125 4.730469-10.675781 11.6875-11.894531 19.597656-1.21875 7.90625.714843 15.816407 5.445312 22.269532 4.730469 6.457031 11.691407 10.679687 19.597657 11.898437 5.726562.878907 11.449218.101563 16.625-2.1875v134.984375c0 5.519532 4.480468 10 10 10h407.96875c5.523437 0 10-4.480468 10-10v-134.167968c11.640624-4.128907 20-15.246094 20-28.28125 0-13.039063-8.359376-24.152344-20-28.28125v-136.269532c3.777343 1.671875 7.847656 2.550782 12 2.550782 1.535156 0 3.078124-.117188 4.625-.355469 7.90625-1.21875 14.867187-5.441407 19.597656-11.894531 9.765625-13.320313 6.871094-32.105469-6.433594-41.859376zm-305.453125 68.9375v-31.191406l127.832031-94.050781 127.832032 94.050781v148.363282h-90.53125l-67.359376-49.558594h127.890626c5.523437 0 10-4.480469 10-10v-60c0-5.519532-4.476563-10-10-10h-195.660157c-5.523437 0-10 4.480468-10 10v12.777344l-6.328125-4.65625c-4.082031-3.105469-8.800781-5.007813-13.675781-5.734376zm215.664063 7.613282v40h-77.832032v-40zm-97.832032 40h-47.238281l-30.589844-22.507813v-17.492187h77.828125zm-172.304687 212.003906h-37.828125v-39.996094h37.828125zm20-60h60v100.003906h-60zm80 20.003906h37.832031v39.996094h-37.832031zm77.832031 80h-77.832031v-20.003906h47.832031c5.519531 0 10-4.476562 10-10v-59.996094c0-5.523437-4.480469-10-10-10h-47.832031v-.003906c0-11.027344-8.96875-20-19.996094-20h-60.003906c-11.027344 0-20 8.972656-20 20v.003906h-47.828125c-5.523438 0-10 4.476563-10 10v59.996094c0 5.523438 4.476562 10 10 10h47.828125v20.003906h-77.832031v-138.808594l127.832031-94.050781 127.832031 94.050781zm20 0v-122.449218h11.875c.042969 0 .082031.003906.125.003906s.085938-.003906.128906-.003906h100.175782v122.449218zm122.304688-142.449218h-81.992188c2.300781-6.535157 2.222656-13.613282-.039062-20h82.03125c5.515624 0 10 4.484374 10 10 0 5.515624-4.484376 10-10 10zm0 0" data-original="#000000" class="active-path" data-old_color="#000000" fill="#FFFFFF"/><path d="m98.109375 274.65625c2.257813 0 4.527344-.757812 6.398437-2.316406l.003907-.003906c4.242187-3.539063 4.8125-9.839844 1.277343-14.082032-3.535156-4.242187-9.84375-4.8125-14.085937-1.28125-4.242187 3.539063-4.816406 9.84375-1.28125 14.085938 1.980469 2.375 4.824219 3.597656 7.6875 3.597656zm0 0" data-original="#000000" class="active-path" data-old_color="#000000" fill="#FFFFFF"/></g> </svg>
