<?xml version="1.0"?>
<svg xmlns="http://www.w3.org/2000/svg" xmlns:xlink="http://www.w3.org/1999/xlink" version="1.1" id="Capa_1" x="0px" y="0px" width="512px" height="512px" viewBox="0 0 62.552 62.551" style="enable-background:new 0 0 62.552 62.551;" xml:space="preserve"><g><g>
	<g>
		<path d="M61.949,35.429L48.133,21.612V12.5c0-1.135-0.922-2.056-2.057-2.056S44.02,11.365,44.02,12.5v5.002l-9.748-9.749    c-0.803-0.802-2.104-0.802-2.905,0L18.612,20.507c-0.804,0.802-0.804,2.104,0,2.907c0.803,0.802,2.104,0.802,2.905,0l11.301-11.3    l26.223,26.222c0.402,0.4,0.928,0.603,1.453,0.603c0.527,0,1.054-0.201,1.454-0.603C62.753,37.534,62.753,36.232,61.949,35.429z" data-original="#000000" class="active-path" data-old_color="#000000" fill="#FFFFFF"/>
		<path d="M56.068,37.79L34.271,15.994c-0.385-0.386-0.907-0.603-1.453-0.603c-0.545,0-1.066,0.217-1.452,0.603l-8.375,8.375    c5.544,2.765,9.514,8.216,10.198,14.647c1.695,0.338,2.959,1.834,2.959,3.604v7.812c0,1.252,0.472,2.448,1.326,3.373    c0.938,1.014,2.267,1.596,3.645,1.596h10.639c2.738,0,4.969-2.229,4.969-4.969V39.797c0-0.312-0.029-0.629-0.092-0.942    C56.557,38.45,56.359,38.08,56.068,37.79z" data-original="#000000" class="active-path" data-old_color="#000000" fill="#FFFFFF"/>
		<path d="M15.564,24.273C6.967,24.273,0,31.243,0,39.837c0,8.596,6.968,15.563,15.564,15.563c8.596,0,15.564-6.969,15.564-15.562    C31.129,31.242,24.161,24.273,15.564,24.273z M20.663,42.408h-2.529v2.526c0,1.42-1.15,2.568-2.569,2.568    c-1.42,0-2.569-1.148-2.569-2.568v-2.526h-2.529c-1.419,0-2.569-1.15-2.569-2.569s1.15-2.569,2.569-2.569h2.529v-2.526    c0-1.418,1.149-2.569,2.569-2.569c1.419,0,2.569,1.151,2.569,2.569v2.526h2.529c1.419,0,2.568,1.15,2.568,2.569    S22.082,42.408,20.663,42.408z" data-original="#000000" class="active-path" data-old_color="#000000" fill="#FFFFFF"/>
	</g>
</g></g> </svg>
