<?xml version="1.0"?>
<svg xmlns="http://www.w3.org/2000/svg" xmlns:xlink="http://www.w3.org/1999/xlink" version="1.1" id="Layer_1" x="0px" y="0px" viewBox="0 0 512 512" style="enable-background:new 0 0 512 512;" xml:space="preserve" width="512px" height="512px" class=""><g><g>
	<g>
		<path d="M459.623,270.367c18.401,0,33.371-14.97,33.371-33.371c0-18.401-14.97-33.371-33.371-33.371    c-6.578,0-12.712,1.92-17.886,5.22c-4.653-30.831-16.831-59.225-34.591-83.257c6.027-1.315,11.76-4.301,16.435-8.977    c13.011-13.011,13.011-34.183,0-47.194c-13.01-13.011-34.182-13.012-47.194,0c-4.677,4.677-7.662,10.409-8.977,16.435    c-24.032-17.761-52.426-29.938-83.257-34.592c3.299-5.174,5.22-11.308,5.22-17.886C289.371,14.97,274.401,0,256,0    c-18.401,0-33.372,14.97-33.372,33.371c0,6.578,1.921,12.712,5.22,17.886c-30.831,4.653-59.225,16.832-83.256,34.592    c-1.315-6.027-4.302-11.76-8.977-16.435c-13.01-13.011-34.182-13.012-47.194,0c-13.011,13.011-13.011,34.183,0,47.194    c4.677,4.677,10.408,7.662,16.435,8.978c-17.761,24.032-29.938,52.426-34.591,83.256c-5.174-3.299-11.308-5.22-17.886-5.22    c-18.401,0-33.371,14.97-33.371,33.371c0,18.401,14.97,33.371,33.371,33.371c6.578,0,12.712-1.92,17.886-5.22    c4.653,30.831,16.832,59.225,34.591,83.256c-6.027,1.315-11.758,4.301-16.435,8.977c-13.011,13.011-13.011,34.183,0,47.194    c6.506,6.506,15.051,9.758,23.596,9.758c8.547,0,17.092-3.253,23.598-9.758c4.677-4.677,7.662-10.408,8.977-16.435    c10.5,7.76,21.829,14.458,33.835,19.924l-34.374,86.342H54.543c-4.859,0-8.798,3.939-8.798,8.798c0,4.859,3.939,8.798,8.798,8.798    h402.914c4.859,0,8.798-3.939,8.798-8.798c0-4.859-3.939-8.798-8.798-8.798h-89.509l-34.374-86.342    c12.006-5.465,23.335-12.163,33.835-19.924c1.315,6.027,4.301,11.758,8.977,16.435c6.506,6.506,15.051,9.758,23.596,9.758    c8.547,0,17.092-3.253,23.598-9.758c13.011-13.011,13.011-34.183,0-47.194c-4.676-4.677-10.408-7.662-16.435-8.977    c17.761-24.032,29.938-52.426,34.591-83.256C446.911,268.445,453.044,270.367,459.623,270.367z M459.623,221.218    c8.699,0,15.776,7.077,15.776,15.776c0,8.699-7.077,15.776-15.776,15.776s-15.776-7.077-15.776-15.776    C443.847,228.295,450.924,221.218,459.623,221.218z M52.376,252.771c-8.699,0-15.776-7.077-15.776-15.776    c0-8.699,7.077-15.776,15.776-15.776s15.776,7.077,15.776,15.776C68.152,245.694,61.075,252.771,52.376,252.771z M388.827,81.856    c3.076-3.076,7.116-4.613,11.155-4.613s8.08,1.538,11.155,4.613c6.151,6.151,6.151,16.16,0,22.312    c-6.151,6.15-16.158,6.151-22.311,0C382.676,98.016,382.676,88.007,388.827,81.856z M369.946,110.61l-14.948,14.947    c-24.303-21.613-55.69-35.416-90.197-37.435V66.969C305.126,69.032,341.787,85.197,369.946,110.61z M297.695,236.995    c0,14.392-7.33,27.103-18.452,34.598l-15.07-37.852c-1.333-3.348-4.571-5.544-8.174-5.544s-6.841,2.197-8.174,5.544l-15.07,37.852    c-11.121-7.496-18.452-20.206-18.452-34.598c0-22.991,18.705-41.695,41.695-41.695C278.99,195.3,297.695,214.005,297.695,236.995z     M264.801,178.361v-72.609c29.66,1.969,56.662,13.809,77.741,32.262l-51.321,51.321    C283.602,183.688,274.59,179.824,264.801,178.361z M296.373,362.191c-10.054,3.25-20.631,5.32-31.572,6.046v-72.609    c1.593-0.238,3.16-0.551,4.708-0.914L296.373,362.191z M262.899,278.11c-2.245,0.374-4.548,0.581-6.899,0.581    c-2.351,0-4.653-0.205-6.899-0.581L256,260.781L262.899,278.11z M247.206,295.63v72.608c-10.943-0.726-21.524-2.795-31.579-6.046    l26.863-67.478C244.041,295.078,245.611,295.391,247.206,295.63z M247.207,178.361h-0.001    c-9.792,1.463-18.808,5.328-26.429,10.976l-51.32-51.32c21.08-18.455,48.086-30.297,77.75-32.264V178.361z M208.334,201.78    c-5.643,7.618-9.506,16.629-10.969,26.417h-72.609c1.968-29.659,13.806-56.659,32.257-77.737L208.334,201.78z M197.365,245.792    c1.463,9.79,5.328,18.804,10.974,26.425l-51.323,51.317c-18.453-21.08-30.291-48.082-32.259-77.742H197.365z M220.781,284.656    c1.72,1.274,3.514,2.448,5.368,3.533l-26.865,67.479c-10.846-5.205-20.87-11.855-29.826-19.696L220.781,284.656z M209.105,378.573    c12.093,4.015,24.867,6.521,38.101,7.294v21.154c-15.985-0.818-31.392-3.851-45.925-8.796L209.105,378.573z M256,424.842    c8.699,0,15.776,7.077,15.776,15.776c0,8.699-7.077,15.776-15.776,15.776c-8.699,0-15.777-7.077-15.777-15.776    S247.301,424.842,256,424.842z M264.801,407.021v-21.154c13.231-0.774,26.002-3.279,38.094-7.294l7.824,19.652    C296.189,403.17,280.783,406.204,264.801,407.021z M285.851,288.191c1.853-1.085,3.647-2.259,5.365-3.532l51.324,51.317    c-8.956,7.841-18.979,14.49-29.825,19.694L285.851,288.191z M303.659,272.218c5.647-7.621,9.512-16.636,10.975-26.427h72.608    c-1.968,29.661-13.808,56.663-32.26,77.743L303.659,272.218z M314.634,228.195v0.001c-1.463-9.788-5.327-18.8-10.971-26.42    l51.321-51.321c18.452,21.079,30.291,48.081,32.259,77.74H314.634z M256,17.595c8.699,0,15.776,7.077,15.776,15.776    S264.699,49.147,256,49.147c-8.699,0-15.777-7.077-15.777-15.776S247.301,17.595,256,17.595z M247.206,66.969v21.153    c-34.51,2.016-65.903,15.821-90.208,37.437l-14.947-14.947C170.213,85.197,206.877,69.031,247.206,66.969z M100.861,104.168    c-6.151-6.152-6.151-16.161,0-22.312c3.076-3.076,7.116-4.613,11.155-4.613c4.04,0,8.08,1.538,11.155,4.613    c6.151,6.151,6.151,16.16,0,22.312C117.02,110.318,107.013,110.319,100.861,104.168z M129.61,123.054l14.947,14.948    c-21.612,24.302-35.412,55.689-37.43,90.195H85.974C88.037,187.874,104.199,151.214,129.61,123.054z M123.172,392.133    c-6.151,6.15-16.158,6.151-22.311,0c-6.151-6.151-6.151-16.16,0-22.311c3.076-3.076,7.116-4.614,11.155-4.614    c4.04,0,8.08,1.538,11.155,4.614C129.323,375.974,129.323,385.982,123.172,392.133z M129.609,350.935    c-25.411-28.161-41.573-64.82-43.635-105.144h21.153c2.018,34.507,15.818,65.895,37.43,90.197L129.609,350.935z M142.05,363.378    l14.948-14.947c10.669,9.489,22.702,17.471,35.767,23.613l-7.822,19.647C169.21,384.434,154.763,374.851,142.05,363.378z     M349.009,494.405H162.99l31.777-79.82c10.631,3.676,21.688,6.427,33.08,8.147c-3.299,5.174-5.22,11.308-5.22,17.886    c0,18.401,14.971,33.371,33.372,33.371c18.401,0,33.371-14.97,33.371-33.371c0-6.578-1.921-12.712-5.22-17.886    c11.392-1.72,22.449-4.47,33.08-8.147L349.009,494.405z M327.056,391.69l-7.822-19.647c13.064-6.142,25.097-14.123,35.764-23.611    l14.949,14.947C357.235,374.851,342.789,384.434,327.056,391.69z M411.138,369.823c6.151,6.151,6.151,16.16,0,22.311    c-6.151,6.15-16.158,6.151-22.311,0c-6.151-6.151-6.151-16.16,0-22.311c3.076-3.076,7.116-4.614,11.155-4.614    S408.063,366.747,411.138,369.823z M382.387,350.938l-14.948-14.947c21.613-24.303,35.415-55.693,37.432-90.2h21.153    C423.963,286.117,407.8,322.777,382.387,350.938z M404.872,228.198v-0.001c-2.018-34.507-15.819-65.896-37.432-90.197    l14.947-14.947c25.412,28.161,41.575,64.82,43.639,105.145H404.872z" data-original="#000000" class="active-path" data-old_color="#000000" fill="#FFFFFF"/>
	</g>
</g></g> </svg>
